<svg
   xmlns="http://www.w3.org/2000/svg"
   height="1000"
   width="1000"
   version="1.1"
   id="svg376">
  <defs
     id="defs4" />
  <g
     id="layer1">
    <g
       id="g247"
       transform="matrix(29.597807,0,0,29.597807,4755.7918,-7870.9602)">
      <g
         id="text237"
         style="font-style:normal;font-variant:normal;font-weight:normal;font-stretch:normal;font-size:5.8723855px;line-height:1.25;font-family:'AR PL UMing TW MBE';-inkscape-font-specification:'AR PL UMing TW MBE';letter-spacing:0px;word-spacing:0px;fill:#333333;fill-opacity:1;stroke:none;stroke-width:0.14680962"
         aria-label="Car-onAPP">
        <path
           id="path101"
           style="font-style:normal;font-variant:normal;font-weight:normal;font-stretch:normal;font-family:'URW Gothic L';-inkscape-font-specification:'URW Gothic L';fill:#333333;stroke-width:0.14680962"
           d="m -154.8534,283.38523 c -0.18204,0.22903 -0.28775,0.34647 -0.43456,0.45805 -0.28774,0.22902 -0.68119,0.35821 -1.07464,0.35821 -1.00418,0 -1.83219,-0.83387 -1.83219,-1.8498 0,-1.04528 0.79278,-1.84393 1.82632,-1.84393 0.37583,0 0.72817,0.0998 1.01592,0.29362 0.19379,0.12332 0.31123,0.25252 0.47566,0.5109 h 0.48741 c -0.33473,-0.74579 -1.09814,-1.20384 -1.99661,-1.20384 -1.29193,0 -2.24913,0.96307 -2.24913,2.26087 0,1.26843 0.98069,2.23151 2.27849,2.23151 0.88086,0 1.55031,-0.41107 1.98487,-1.21559 z" />
        <path
           id="path103"
           style="font-style:normal;font-variant:normal;font-weight:normal;font-stretch:normal;font-family:'URW Gothic L';-inkscape-font-specification:'URW Gothic L';fill:#333333;stroke-width:0.14680962"
           d="m -150.48141,281.31228 h -0.43455 v 0.56962 c -0.31711,-0.4463 -0.71056,-0.64596 -1.26844,-0.64596 -0.96307,0 -1.69125,0.72818 -1.69125,1.69125 0,0.9572 0.73405,1.67363 1.72061,1.67363 0.54613,0 0.89848,-0.18205 1.23908,-0.64009 v 0.56375 h 0.43455 z m -1.69125,0.32298 c 0.70469,0 1.2567,0.55201 1.2567,1.26844 0,0.72817 -0.54026,1.29779 -1.23321,1.29779 -0.72817,0 -1.28605,-0.56962 -1.28605,-1.30367 0,-0.69881 0.56375,-1.26256 1.26256,-1.26256 z" />
        <path
           id="path105"
           style="font-style:normal;font-variant:normal;font-weight:normal;font-stretch:normal;font-family:'URW Gothic L';-inkscape-font-specification:'URW Gothic L';fill:#333333;stroke-width:0.14680962"
           d="m -149.738,284.52448 h 0.43456 v -1.8733 c 0,-0.59898 0.30536,-0.92783 0.91021,-0.98656 v -0.42868 c -0.46391,0.0235 -0.73992,0.18204 -0.91021,0.53439 v -0.45805 h -0.43456 z" />
        <path
           id="path107"
           style="font-style:normal;font-variant:normal;font-weight:normal;font-stretch:normal;font-family:'URW Gothic L';-inkscape-font-specification:'URW Gothic L';fill:#333333;stroke-width:0.14680962"
           d="m -148.15961,282.78625 v 0.36996 h 1.59141 v -0.36996 z" />
        <path
           id="path109"
           style="font-style:normal;font-variant:normal;font-weight:normal;font-stretch:normal;font-family:'URW Gothic L';-inkscape-font-specification:'URW Gothic L';fill:#333333;stroke-width:0.14680962"
           d="m -144.45983,281.23594 c -0.95132,0 -1.68537,0.7223 -1.68537,1.66188 0,0.98657 0.7223,1.703 1.72061,1.703 0.93958,0 1.63252,-0.71056 1.63252,-1.67363 0,-0.98069 -0.70469,-1.69125 -1.66776,-1.69125 z m 0,0.39932 c 0.70469,0 1.22733,0.55201 1.22733,1.2978 0,0.73405 -0.50502,1.26843 -1.20384,1.26843 -0.73992,0 -1.26843,-0.54026 -1.26843,-1.29192 0,-0.72818 0.53438,-1.27431 1.24494,-1.27431 z" />
        <path
           id="path111"
           style="font-style:normal;font-variant:normal;font-weight:normal;font-stretch:normal;font-family:'URW Gothic L';-inkscape-font-specification:'URW Gothic L';fill:#333333;stroke-width:0.14680962"
           d="m -142.1796,284.52448 h 0.43456 v -1.76759 c 0,-0.35822 0.047,-0.54613 0.1703,-0.72818 0.1703,-0.24664 0.46979,-0.39345 0.81039,-0.39345 0.31711,0 0.60485,0.12919 0.78102,0.34647 0.15269,0.19966 0.21141,0.43456 0.21141,0.85737 v 1.68538 h 0.43456 v -1.68538 c 0,-0.54026 -0.0763,-0.82801 -0.28188,-1.10401 -0.25251,-0.31711 -0.64009,-0.49915 -1.09226,-0.49915 -0.42281,0 -0.76341,0.16443 -1.03354,0.49328 v -0.41694 h -0.43456 z" />
        <path
           id="path113"
           style="font-style:normal;font-variant:normal;font-weight:normal;font-stretch:normal;font-family:'URW Gothic L';-inkscape-font-specification:'URW Gothic L';fill:#333333;stroke-width:0.14680962"
           d="m -138.90648,284.52448 h 0.45805 l 0.63422,-1.46223 h 2.0201 l 0.62834,1.46223 h 0.47567 l -1.86742,-4.3397 h -0.48741 z m 1.25669,-1.85568 0.8515,-1.99074 0.83388,1.99074 z" />
        <path
           id="path115"
           style="font-style:normal;font-variant:normal;font-weight:normal;font-stretch:normal;font-family:'URW Gothic L';-inkscape-font-specification:'URW Gothic L';fill:#333333;stroke-width:0.14680962"
           d="m -134.17783,284.52448 h 0.43456 v -1.75585 h 0.83387 c 0.58724,0 0.90435,-0.0763 1.16861,-0.27013 0.28187,-0.20553 0.43456,-0.56375 0.43456,-0.9983 0,-0.49916 -0.18792,-0.89261 -0.51677,-1.08639 -0.27013,-0.16443 -0.59899,-0.22903 -1.15686,-0.22903 h -1.19797 z m 0.43456,-2.1493 v -1.79695 h 0.6166 c 0.49915,0 0.81039,0.0411 0.98656,0.12919 0.25251,0.1292 0.39345,0.4052 0.39345,0.79278 0,0.33472 -0.13507,0.60485 -0.35822,0.72817 -0.18204,0.10571 -0.43456,0.14681 -0.83388,0.14681 z" />
        <path
           id="path117"
           style="font-style:normal;font-variant:normal;font-weight:normal;font-stretch:normal;font-family:'URW Gothic L';-inkscape-font-specification:'URW Gothic L';fill:#333333;stroke-width:0.14680962"
           d="m -130.70257,284.52448 h 0.43456 v -1.75585 h 0.83387 c 0.58724,0 0.90435,-0.0763 1.16861,-0.27013 0.28187,-0.20553 0.43456,-0.56375 0.43456,-0.9983 0,-0.49916 -0.18792,-0.89261 -0.51677,-1.08639 -0.27013,-0.16443 -0.59899,-0.22903 -1.15686,-0.22903 h -1.19797 z m 0.43456,-2.1493 v -1.79695 h 0.6166 c 0.49915,0 0.81039,0.0411 0.98656,0.12919 0.25251,0.1292 0.39345,0.4052 0.39345,0.79278 0,0.33472 -0.13507,0.60485 -0.35822,0.72817 -0.18204,0.10571 -0.43456,0.14681 -0.83388,0.14681 z" />
      </g>
      <path
         id="rect239"
         d="m -282.45007,145.17633 h 0.35599 v 1.93305 h -0.35599 z"
         style="fill:#333333;fill-opacity:1;stroke-width:0.18326741"
         transform="matrix(0.00154411,-0.99999881,-0.99999881,-0.00154411,0,0)" />
      <path
         id="rect241"
         d="m -284.36319,145.17546 h 0.35599 v 1.93305 h -0.35599 z"
         style="fill:#333333;fill-opacity:1;stroke-width:0.18326741"
         transform="matrix(0.00154411,-0.99999881,-0.99999881,-0.00154411,0,0)" />
    </g>
  </g>
</svg>
